<svg xmlns="http://www.w3.org/2000/svg" viewBox="0 0 50 50"><g fill="#fff"><path d="M17.32 31.258c-.616.376-.92.855-1.19 1.334-.27.48-.338.99-.338 1.527 0 .99.36 1.707.943 2.157.584.447 1.48.674 2.406.674.9 0 2.11-.208 2.86-.628.75-.42 3-1.02 3-1.8V29.46c-2 .227-3.225.397-4.016.66-1.005.338-3.05.764-3.665 1.138z"/><path d="M39.48 0H3.576C1.34 0 0 1.62 0 3.86v35.9C0 41.996 1.34 44 3.577 44H39.48c2.236 0 4.52-2.004 4.52-4.24V3.86C44 1.62 41.716 0 39.48 0zm-3.233 26.51L39.297 40h-5.28l-2.112-12.426-1.905.618v7.585c0 3.065-.208 4.223-.208 4.223h-5.53l-.044-1h-.135c-.988 0-2.045 1.06-3.168 1.628-1.125.568-2.346.486-3.662.486-1.95 0-3.53-.65-4.744-1.834s-1.82-2.793-1.82-4.744c0-2.367 1.1-4.1 3.102-5.49 2.14-1.487 4.252-2.513 9.342-3.348l.47-.1c.007-.077.017-.38-.15-.896-.17-.517-.382-.988-.696-1.394-.314-.403-.72-.72-1.213-.942-.496-.226-1.117-.338-1.867-.338-1.108 0-2.18.21-3.213.63-1.033.418-2.03.93-2.99 1.525l-1.885-3.46c1.23-.78 2.6-1.453 4.11-2.02 1.515-.57 3.155-.855 4.925-.855 2.785 0 4.695.815 6.045 2.45.908 1.1 1.434 2.54 1.682 4.302l2.033-.427-.14-.607-.478-2.242c-.238-1.113-.328-2.174-.268-3.183.06-1.007.31-1.92.75-2.733.437-.814 1.06-1.507 1.874-2.08.81-.57 1.863-.997 3.152-1.27.76-.166 1.502-.247 2.22-.248.724 0 1.352.047 1.896.145l-.156 3.988c-.87-.183-1.7-.19-2.488-.02-1.816.39-2.465 1.8-1.945 4.232l.664 2.95 3.828-.8.637 3.54-3.685.664z"/></g></svg>